<mxfile modified="2021-02-09T15:51:23.734Z" host="app.diagrams.net" agent="5.0 (Macintosh; Intel Mac OS X 10_15_7) AppleWebKit/537.36 (KHTML, like Gecko) Chrome/88.0.4324.150 Safari/537.36" etag="4RG8gjVHhuZmJmkrNUch" version="14.3.0" type="github">
  <diagram id="l8hXMBHkgcEJcSW0mbfh" name="Page-1">
    <mxGraphModel dx="788" dy="538" grid="1" gridSize="10" guides="1" tooltips="1" connect="1" arrows="1" fold="1" page="1" pageScale="1" pageWidth="1169" pageHeight="827" math="0" shadow="0">
      <root>
        <mxCell id="0" />
        <mxCell id="1" parent="0" />
        <mxCell id="qojFPFEIn5ypN-THC_9b-14" value="" style="edgeStyle=orthogonalEdgeStyle;rounded=0;orthogonalLoop=1;jettySize=auto;html=1;" edge="1" parent="1" source="qojFPFEIn5ypN-THC_9b-5" target="qojFPFEIn5ypN-THC_9b-6">
          <mxGeometry relative="1" as="geometry">
            <Array as="points">
              <mxPoint x="190" y="370" />
              <mxPoint x="190" y="370" />
            </Array>
          </mxGeometry>
        </mxCell>
        <mxCell id="qojFPFEIn5ypN-THC_9b-26" style="edgeStyle=orthogonalEdgeStyle;rounded=0;orthogonalLoop=1;jettySize=auto;html=1;" edge="1" parent="1" source="qojFPFEIn5ypN-THC_9b-5" target="qojFPFEIn5ypN-THC_9b-8">
          <mxGeometry relative="1" as="geometry">
            <Array as="points">
              <mxPoint x="330" y="460" />
              <mxPoint x="330" y="460" />
            </Array>
          </mxGeometry>
        </mxCell>
        <mxCell id="qojFPFEIn5ypN-THC_9b-5" value="" style="shape=image;html=1;verticalAlign=top;verticalLabelPosition=bottom;labelBackgroundColor=#ffffff;imageAspect=0;aspect=fixed;image=https://cdn3.iconfinder.com/data/icons/social-network-30/512/social-09-128.png" vertex="1" parent="1">
          <mxGeometry x="165" y="438" width="62" height="62" as="geometry" />
        </mxCell>
        <mxCell id="qojFPFEIn5ypN-THC_9b-15" value="" style="edgeStyle=orthogonalEdgeStyle;rounded=0;orthogonalLoop=1;jettySize=auto;html=1;" edge="1" parent="1">
          <mxGeometry relative="1" as="geometry">
            <mxPoint x="200" y="324.5" as="sourcePoint" />
            <mxPoint x="200" y="438.0000000000001" as="targetPoint" />
            <Array as="points">
              <mxPoint x="200" y="400" />
              <mxPoint x="200" y="400" />
            </Array>
          </mxGeometry>
        </mxCell>
        <mxCell id="qojFPFEIn5ypN-THC_9b-19" style="edgeStyle=orthogonalEdgeStyle;rounded=0;orthogonalLoop=1;jettySize=auto;html=1;" edge="1" parent="1" source="qojFPFEIn5ypN-THC_9b-6" target="qojFPFEIn5ypN-THC_9b-9">
          <mxGeometry relative="1" as="geometry">
            <Array as="points">
              <mxPoint x="360" y="290" />
              <mxPoint x="360" y="290" />
            </Array>
          </mxGeometry>
        </mxCell>
        <mxCell id="qojFPFEIn5ypN-THC_9b-6" value="" style="aspect=fixed;pointerEvents=1;shadow=0;dashed=0;html=1;strokeColor=none;labelPosition=center;verticalLabelPosition=bottom;verticalAlign=top;align=center;fillColor=#00188D;shape=mxgraph.azure.computer" vertex="1" parent="1">
          <mxGeometry x="171" y="279.5" width="50" height="45" as="geometry" />
        </mxCell>
        <mxCell id="qojFPFEIn5ypN-THC_9b-25" style="edgeStyle=orthogonalEdgeStyle;rounded=0;orthogonalLoop=1;jettySize=auto;html=1;entryX=0.625;entryY=-0.016;entryDx=0;entryDy=0;entryPerimeter=0;" edge="1" parent="1" source="qojFPFEIn5ypN-THC_9b-7" target="qojFPFEIn5ypN-THC_9b-9">
          <mxGeometry relative="1" as="geometry">
            <Array as="points">
              <mxPoint x="470" y="160" />
            </Array>
          </mxGeometry>
        </mxCell>
        <mxCell id="qojFPFEIn5ypN-THC_9b-7" value="" style="verticalLabelPosition=bottom;aspect=fixed;html=1;verticalAlign=top;strokeColor=none;align=center;outlineConnect=0;shape=mxgraph.citrix.dns_server;" vertex="1" parent="1">
          <mxGeometry x="721.75" y="110" width="76.5" height="92.5" as="geometry" />
        </mxCell>
        <mxCell id="qojFPFEIn5ypN-THC_9b-30" style="edgeStyle=orthogonalEdgeStyle;rounded=0;orthogonalLoop=1;jettySize=auto;html=1;" edge="1" parent="1" source="qojFPFEIn5ypN-THC_9b-8">
          <mxGeometry relative="1" as="geometry">
            <mxPoint x="710" y="460" as="targetPoint" />
            <Array as="points">
              <mxPoint x="710" y="460" />
            </Array>
          </mxGeometry>
        </mxCell>
        <mxCell id="qojFPFEIn5ypN-THC_9b-36" style="edgeStyle=orthogonalEdgeStyle;rounded=0;orthogonalLoop=1;jettySize=auto;html=1;" edge="1" parent="1" source="qojFPFEIn5ypN-THC_9b-8" target="qojFPFEIn5ypN-THC_9b-5">
          <mxGeometry relative="1" as="geometry" />
        </mxCell>
        <mxCell id="qojFPFEIn5ypN-THC_9b-8" value="" style="ellipse;shape=cloud;whiteSpace=wrap;html=1;" vertex="1" parent="1">
          <mxGeometry x="410" y="429" width="120" height="80" as="geometry" />
        </mxCell>
        <mxCell id="qojFPFEIn5ypN-THC_9b-20" style="edgeStyle=orthogonalEdgeStyle;rounded=0;orthogonalLoop=1;jettySize=auto;html=1;entryX=1.007;entryY=0.456;entryDx=0;entryDy=0;entryPerimeter=0;" edge="1" parent="1" source="qojFPFEIn5ypN-THC_9b-9" target="qojFPFEIn5ypN-THC_9b-6">
          <mxGeometry relative="1" as="geometry">
            <mxPoint x="230" y="302" as="targetPoint" />
            <Array as="points">
              <mxPoint x="350" y="300" />
              <mxPoint x="350" y="300" />
            </Array>
          </mxGeometry>
        </mxCell>
        <mxCell id="qojFPFEIn5ypN-THC_9b-24" style="edgeStyle=orthogonalEdgeStyle;rounded=0;orthogonalLoop=1;jettySize=auto;html=1;" edge="1" parent="1" source="qojFPFEIn5ypN-THC_9b-9" target="qojFPFEIn5ypN-THC_9b-7">
          <mxGeometry relative="1" as="geometry">
            <Array as="points">
              <mxPoint x="462" y="150" />
            </Array>
          </mxGeometry>
        </mxCell>
        <mxCell id="qojFPFEIn5ypN-THC_9b-9" value="" style="aspect=fixed;html=1;points=[];align=center;image;fontSize=12;image=img/lib/azure2/networking/DNS_Zones.svg;" vertex="1" parent="1">
          <mxGeometry x="430" y="270" width="64" height="64" as="geometry" />
        </mxCell>
        <mxCell id="qojFPFEIn5ypN-THC_9b-33" style="edgeStyle=orthogonalEdgeStyle;rounded=0;orthogonalLoop=1;jettySize=auto;html=1;" edge="1" parent="1" source="qojFPFEIn5ypN-THC_9b-10">
          <mxGeometry relative="1" as="geometry">
            <mxPoint x="980" y="460" as="targetPoint" />
            <Array as="points">
              <mxPoint x="870" y="460" />
              <mxPoint x="870" y="460" />
            </Array>
          </mxGeometry>
        </mxCell>
        <mxCell id="qojFPFEIn5ypN-THC_9b-35" style="edgeStyle=orthogonalEdgeStyle;rounded=0;orthogonalLoop=1;jettySize=auto;html=1;" edge="1" parent="1" source="qojFPFEIn5ypN-THC_9b-10" target="qojFPFEIn5ypN-THC_9b-8">
          <mxGeometry relative="1" as="geometry" />
        </mxCell>
        <mxCell id="qojFPFEIn5ypN-THC_9b-10" value="" style="aspect=fixed;perimeter=ellipsePerimeter;html=1;align=center;shadow=0;dashed=0;spacingTop=3;image;image=img/lib/active_directory/internet_globe.svg;" vertex="1" parent="1">
          <mxGeometry x="710" y="419" width="100" height="100" as="geometry" />
        </mxCell>
        <mxCell id="qojFPFEIn5ypN-THC_9b-34" style="edgeStyle=orthogonalEdgeStyle;rounded=0;orthogonalLoop=1;jettySize=auto;html=1;entryX=1;entryY=0.5;entryDx=0;entryDy=0;" edge="1" parent="1" source="qojFPFEIn5ypN-THC_9b-11" target="qojFPFEIn5ypN-THC_9b-10">
          <mxGeometry relative="1" as="geometry" />
        </mxCell>
        <mxCell id="qojFPFEIn5ypN-THC_9b-11" value="" style="html=1;aspect=fixed;strokeColor=none;shadow=0;align=center;verticalAlign=top;fillColor=#3B8DF1;shape=mxgraph.gcp2.cloud_server" vertex="1" parent="1">
          <mxGeometry x="990" y="424.5" width="100" height="89" as="geometry" />
        </mxCell>
        <mxCell id="qojFPFEIn5ypN-THC_9b-38" value="www.happistar.com" style="whiteSpace=wrap;html=1;fillColor=#dae8fc;strokeColor=#6c8ebf;" vertex="1" parent="1">
          <mxGeometry x="70" y="370" width="120" height="20" as="geometry" />
        </mxCell>
        <mxCell id="qojFPFEIn5ypN-THC_9b-39" value="www.happistar.com" style="whiteSpace=wrap;html=1;fillColor=#dae8fc;strokeColor=#6c8ebf;" vertex="1" parent="1">
          <mxGeometry x="270" y="270" width="120" height="20" as="geometry" />
        </mxCell>
        <mxCell id="qojFPFEIn5ypN-THC_9b-40" value="www.happistar.com" style="whiteSpace=wrap;html=1;fillColor=#dae8fc;strokeColor=#6c8ebf;" vertex="1" parent="1">
          <mxGeometry x="530" y="130" width="120" height="20" as="geometry" />
        </mxCell>
        <mxCell id="qojFPFEIn5ypN-THC_9b-41" value="&lt;span&gt;122.122.122.122&lt;/span&gt;" style="whiteSpace=wrap;html=1;fillColor=#d5e8d4;strokeColor=#82b366;" vertex="1" parent="1">
          <mxGeometry x="530" y="160" width="120" height="20" as="geometry" />
        </mxCell>
        <mxCell id="qojFPFEIn5ypN-THC_9b-42" value="&lt;span&gt;122.122.122.122&lt;/span&gt;" style="whiteSpace=wrap;html=1;fillColor=#d5e8d4;strokeColor=#82b366;" vertex="1" parent="1">
          <mxGeometry x="270" y="299.5" width="120" height="20" as="geometry" />
        </mxCell>
        <mxCell id="qojFPFEIn5ypN-THC_9b-43" value="&lt;span&gt;122.122.122.122&lt;/span&gt;" style="whiteSpace=wrap;html=1;fillColor=#d5e8d4;strokeColor=#82b366;" vertex="1" parent="1">
          <mxGeometry x="200" y="370" width="120" height="20" as="geometry" />
        </mxCell>
        <mxCell id="qojFPFEIn5ypN-THC_9b-44" value="122.122.122.122" style="whiteSpace=wrap;html=1;fillColor=#dae8fc;strokeColor=#6c8ebf;" vertex="1" parent="1">
          <mxGeometry x="260" y="440" width="120" height="20" as="geometry" />
        </mxCell>
        <mxCell id="qojFPFEIn5ypN-THC_9b-45" value="122.122.122.122" style="whiteSpace=wrap;html=1;fillColor=#dae8fc;strokeColor=#6c8ebf;" vertex="1" parent="1">
          <mxGeometry x="560" y="440" width="120" height="20" as="geometry" />
        </mxCell>
        <mxCell id="qojFPFEIn5ypN-THC_9b-46" value="122.122.122.122" style="whiteSpace=wrap;html=1;fillColor=#dae8fc;strokeColor=#6c8ebf;" vertex="1" parent="1">
          <mxGeometry x="830" y="440" width="120" height="20" as="geometry" />
        </mxCell>
        <mxCell id="qojFPFEIn5ypN-THC_9b-69" value="111.111.3.44" style="swimlane;fontStyle=0;childLayout=stackLayout;horizontal=1;startSize=26;fillColor=none;horizontalStack=0;resizeParent=1;resizeParentMax=0;resizeLast=0;collapsible=1;marginBottom=0;strokeColor=#000000;verticalAlign=middle;align=center;" vertex="1" parent="1">
          <mxGeometry x="950" y="40" width="110" height="104" as="geometry" />
        </mxCell>
        <mxCell id="qojFPFEIn5ypN-THC_9b-70" value="122.122.122.122" style="text;fillColor=#1ba1e2;align=center;verticalAlign=middle;spacingLeft=4;spacingRight=4;overflow=hidden;rotatable=0;points=[[0,0.5],[1,0.5]];portConstraint=eastwest;strokeColor=#006EAF;fontColor=#ffffff;" vertex="1" parent="qojFPFEIn5ypN-THC_9b-69">
          <mxGeometry y="26" width="110" height="26" as="geometry" />
        </mxCell>
        <mxCell id="qojFPFEIn5ypN-THC_9b-71" value="110.20.30.40" style="text;fillColor=none;align=center;verticalAlign=middle;spacingLeft=4;spacingRight=4;overflow=hidden;rotatable=0;points=[[0,0.5],[1,0.5]];portConstraint=eastwest;strokeColor=#000000;" vertex="1" parent="qojFPFEIn5ypN-THC_9b-69">
          <mxGeometry y="52" width="110" height="26" as="geometry" />
        </mxCell>
        <mxCell id="qojFPFEIn5ypN-THC_9b-72" value="......" style="text;fillColor=none;align=center;verticalAlign=middle;spacingLeft=4;spacingRight=4;overflow=hidden;rotatable=0;points=[[0,0.5],[1,0.5]];portConstraint=eastwest;strokeColor=#000000;" vertex="1" parent="qojFPFEIn5ypN-THC_9b-69">
          <mxGeometry y="78" width="110" height="26" as="geometry" />
        </mxCell>
        <mxCell id="qojFPFEIn5ypN-THC_9b-73" value="www.abcd.com" style="swimlane;fontStyle=0;childLayout=stackLayout;horizontal=1;startSize=26;fillColor=none;horizontalStack=0;resizeParent=1;resizeParentMax=0;resizeLast=0;collapsible=1;marginBottom=0;strokeColor=#000000;verticalAlign=middle;align=center;" vertex="1" parent="1">
          <mxGeometry x="830" y="40" width="120" height="104" as="geometry" />
        </mxCell>
        <mxCell id="qojFPFEIn5ypN-THC_9b-74" value="www.happistar.com" style="text;fillColor=#1ba1e2;align=center;verticalAlign=top;spacingLeft=4;spacingRight=4;overflow=hidden;rotatable=0;points=[[0,0.5],[1,0.5]];portConstraint=eastwest;strokeColor=#006EAF;fontColor=#ffffff;" vertex="1" parent="qojFPFEIn5ypN-THC_9b-73">
          <mxGeometry y="26" width="120" height="26" as="geometry" />
        </mxCell>
        <mxCell id="qojFPFEIn5ypN-THC_9b-75" value="order.mcdonalds.net" style="text;fillColor=none;align=center;verticalAlign=middle;spacingLeft=4;spacingRight=4;overflow=hidden;rotatable=0;points=[[0,0.5],[1,0.5]];portConstraint=eastwest;strokeColor=#000000;" vertex="1" parent="qojFPFEIn5ypN-THC_9b-73">
          <mxGeometry y="52" width="120" height="26" as="geometry" />
        </mxCell>
        <mxCell id="qojFPFEIn5ypN-THC_9b-76" value="......" style="text;fillColor=none;align=center;verticalAlign=top;spacingLeft=4;spacingRight=4;overflow=hidden;rotatable=0;points=[[0,0.5],[1,0.5]];portConstraint=eastwest;strokeColor=#000000;" vertex="1" parent="qojFPFEIn5ypN-THC_9b-73">
          <mxGeometry y="78" width="120" height="26" as="geometry" />
        </mxCell>
        <mxCell id="qojFPFEIn5ypN-THC_9b-77" value="" style="aspect=fixed;html=1;points=[];align=center;image;fontSize=12;image=img/lib/azure2/general/Search.svg;strokeColor=#000000;" vertex="1" parent="1">
          <mxGeometry x="780" y="130" width="110" height="33" as="geometry" />
        </mxCell>
      </root>
    </mxGraphModel>
  </diagram>
</mxfile>
